#!OML:ASF E:\id_vita\Project 1\Capture day 1\Session 1\Female.ASF
:FULLY-SPECIFIED
:DEGREES
757
root 3.59315 15.312 -4.36523 -218.948 -87.1261 264.621
lowerback 11.8157 0.17276 -3.62029
upperback 4.58296 -0.316023 0.751204
thorax -1.80667 -0.260371 2.86577
lowerneck -10.3961 -0.16961 -5.36986
upperneck -24.7179 0.13848 8.22287
head -5.81152 -0.642425 3.65643
rclavicle 2.8625e-014 4.69132e-014
rhumerus -11.8322 29.2106 -101.617
rradius 107.237
rwrist -27.0339
rhand -36.9522 -13.9863
rfingers 7.12502
rthumb -10.0285 -43.7273
lclavicle 2.8625e-014 4.69132e-014
lhumerus 45.4672 -22.9753 90.621
lradius 36.5515
lwrist 31.8977
lhand 8.60624 53.7861
lfingers 7.12502
lthumb 33.8032 80.6134
rfemur -74.8164 -9.99311 22.3325
rtibia 80.7227
rfoot -2.72039 -21.2065
rtoes 4.66885
lfemur -80.977 2.06531 -38.3558
ltibia 58.5515
lfoot -15.5038 9.50992
ltoes 9.1956
758
root 3.61689 15.3476 -4.36273 -219.615 -87.0374 265.251
lowerback 11.9105 0.196839 -3.54486
upperback 4.60725 -0.283484 0.685389
thorax -1.83655 -0.243901 2.75095
lowerneck -10.4554 -0.191977 -5.19593
upperneck -24.5441 0.115267 8.30057
head -5.74259 -0.666661 3.64645
rclavicle 3.22031e-014 4.45278e-014
rhumerus -12.1108 29.1966 -101.735
rradius 107.253
rwrist -26.9657
rhand -36.8875 -13.9113
rfingers 7.12502
rthumb -9.96613 -43.6553
lclavicle 3.22031e-014 4.45278e-014
lhumerus 45.0217 -22.8558 91.0663
lradius 36.741
lwrist 31.7225
lhand 8.25596 54.1819
lfingers 7.12502
lthumb 33.4704 81.0817
rfemur -73.4024 -10.2723 22.5657
rtibia 80.2611
rfoot -1.7537 -20.7876
rtoes 5.13277
lfemur -80.6491 2.12656 -38.2273
ltibia 57.7967
lfoot -15.3971 9.37187
ltoes 9.211
759
root 3.63936 15.3878 -4.36244 -222.122 -86.9623 267.716
lowerback 11.999 0.179152 -3.47275
upperback 4.68914 -0.305054 0.694536
thorax -1.79815 -0.257821 2.72293
lowerneck -10.5375 -0.303189 -5.27492
upperneck -24.4437 -0.00532238 8.48058
head -5.68561 -0.727135 3.71735
rclavicle -1.59028e-015 1.03368e-014
rhumerus -12.1506 29.1507 -101.705
rradius 107.29
rwrist -26.6532
rhand -36.3352 -14.2881
rfingers 7.12502
rthumb -9.43328 -44.057
lclavicle -1.59028e-015 1.03368e-014
lhumerus 44.6538 -22.7677 91.2594
lradius 37.0776
lwrist 31.8435
lhand 8.13896 54.1802
lfingers 7.12502
lthumb 33.3591 81.104
rfemur -71.9559 -10.563 22.8272
rtibia 79.7137
rfoot -0.885657 -20.2866
rtoes 4.45756
lfemur -80.2564 2.12562 -38.0189
ltibia 56.9824
lfoot -15.2448 9.28616
ltoes 8.89966
760
root 3.66294 15.4251 -4.36303 -220.896 -86.9144 266.679
lowerback 11.8266 0.2238 -3.60952
upperback 4.74538 -0.255065 0.714028
thorax -1.6482 -0.238713 2.81216
lowerneck -10.8179 -0.446778 -5.1706
upperneck -24.3794 -0.2177 8.49833
head -5.60607 -0.843429 3.70447
rclavicle 0 -3.57812e-015
rhumerus -12.0969 28.9467 -101.555
rradius 107.374
rwrist -26.6435
rhand -35.9359 -14.3981
rfingers 7.12502
rthumb -9.04796 -44.184
lclavicle 0 -3.57812e-015
lhumerus 44.4523 -22.7084 91.4231
lradius 37.4424
lwrist 32.0037
lhand 8.54354 53.7832
lfingers 7.12502
lthumb 33.7437 80.6235
rfemur -70.8175 -10.6965 22.9108
rtibia 79.1223
rfoot -0.311786 -19.5518
rtoes 2.48715
lfemur -80.1098 2.13451 -37.9808
ltibia 56.1351
lfoot -15.1239 9.15937
ltoes 9.87012
761
root 3.68678 15.4587 -4.36314 -217.052 -86.8519 263.032
lowerback 11.6703 0.359914 -3.79029
upperback 4.77309 -0.0905466 0.704743
thorax -1.54571 -0.161805 2.88226
lowerneck -10.4119 -0.636932 -5.92757
upperneck -24.8788 -0.326625 9.17552
head -5.80888 -0.89534 4.07874
rclavicle 3.45885e-014 3.89618e-014
rhumerus -12.2085 28.7706 -101.37
rradius 107.556
rwrist -26.5088
rhand -36.0226 -14.7079
rfingers 7.12502
rthumb -9.13165 -44.4902
lclavicle 3.45885e-014 3.89618e-014
lhumerus 44.3937 -22.8606 91.5821
lradius 37.7159
lwrist 32.3685
lhand 8.83796 53.8407
lfingers 7.12502
lthumb 34.0234 80.6193
rfemur -69.7285 -10.7933 22.9309
rtibia 78.5066
rfoot 1.14358 -18.0457
rtoes 7.36529
lfemur -79.996 2.22157 -38.0645
ltibia 55.2983
lfoot -14.9628 9.07345
ltoes 10.7486
762
root 3.70998 15.4909 -4.35988 -217.996 -86.7827 264.004
lowerback 11.679 0.312253 -3.70506
upperback 4.68374 -0.142766 0.647798
thorax -1.64045 -0.181266 2.7818
lowerneck -10.5855 -0.48586 -6.07927
upperneck -24.3719 -0.0540524 9.37641
head -5.63447 -0.731416 4.14984
rclavicle 3.18055e-015 1.15295e-014
rhumerus -12.8172 29.0278 -101.763
rradius 107.629
rwrist -25.8464
rhand -36.679 -14.7568
rfingers 7.12502
rthumb -9.76496 -44.5104
lclavicle 3.18055e-015 1.15295e-014
lhumerus 44.1499 -22.8141 91.5039
lradius 37.7131
lwrist 32.7006
lhand 9.05138 54.0711
lfingers 7.12502
lthumb 34.2261 80.8044
rfemur -68.4313 -11.0936 23.1557
rtibia 77.8731
rfoot 1.65973 -17.5071
rtoes 6.26645
lfemur -79.6929 2.20805 -37.9264
ltibia 54.4945
lfoot -14.7551 9.03373
ltoes 10.957
763
root 3.7307 15.5308 -4.35295 -222.218 -86.6184 268.139
lowerback 11.7572 0.254573 -3.33233
upperback 4.80513 -0.186473 0.625352
thorax -1.55593 -0.205031 2.55346
lowerneck -10.9239 -0.688224 -5.38427
upperneck -24.2419 -0.438522 9.11622
head -5.51652 -0.967833 3.94108
rclavicle 2.38542e-015 1.47101e-014
rhumerus -12.7478 29.1019 -101.825
rradius 107.759
rwrist -26.4178
rhand -36.6608 -14.0562
rfingers 7.12502
rthumb -9.74738 -43.8106
lclavicle 2.38542e-015 1.47101e-014
lhumerus 44.262 -22.8076 91.2824
lradius 37.6901
lwrist 32.8418
lhand 9.238 53.7078
lfingers 7.12502
lthumb 34.4033 80.4011
rfemur -66.9426 -11.3956 23.5103
rtibia 77.1892
rfoot 1.74264 -17.5483
rtoes 1.64485
lfemur -79.2646 2.19128 -37.5657
ltibia 53.7137
lfoot -14.6449 8.96186
ltoes 11.4573
764
root 3.75415 15.5655 -4.3494 -221.506 -86.5983 267.361
lowerback 11.8621 0.220471 -3.32036
upperback 4.90225 -0.241032 0.513154
thorax -1.50868 -0.235461 2.43714
lowerneck -11.2764 -0.621943 -5.44788
upperneck -24.052 -0.316197 9.26583
head -5.40721 -0.901491 3.99248
rclavicle -1.11319e-014 2.78299e-015
rhumerus -12.6862 29.5398 -101.925
rradius 107.682
rwrist -26.2164
rhand -37.5016 -13.9044
rfingers 7.12502
rthumb -10.5585 -43.6192
lclavicle -1.11319e-014 2.78299e-015
lhumerus 44.2941 -22.7625 91.0045
lradius 37.9106
lwrist 33.0875
lhand 9.25845 53.3622
lfingers 7.12502
lthumb 34.4227 80.0511
rfemur -65.564 -11.5978 23.5033
rtibia 76.5521
rfoot 2.25106 -17.337
rtoes -0.00906281
lfemur -78.8631 2.25628 -37.579
ltibia 52.9323
lfoot -14.5354 8.89543
ltoes 11.6487
765
root 3.78341 15.5879 -4.35304 -216.135 -86.705 262.128
lowerback 11.7705 0.162285 -3.73292
upperback 4.84938 -0.361475 0.304321
thorax -1.50367 -0.295644 2.46736
lowerneck -11.701 -0.380128 -4.96736
upperneck -23.5671 -0.054438 8.99876
head -5.21188 -0.773173 3.80366
rclavicle -4.21423e-014 -3.73715e-014
rhumerus -12.8227 29.7302 -102.219
rradius 107.881
rwrist -27.1546
rhand -36.824 -13.9515
rfingers 7.12502
rthumb -9.90481 -43.6985
lclavicle -4.21423e-014 -3.73715e-014
lhumerus 44.0626 -22.505 90.7231
lradius 38.2327
lwrist 33.2952
lhand 8.99525 52.9153
lfingers 7.12502
lthumb 34.1728 79.6605
rfemur -64.5543 -11.7334 23.289
rtibia 75.9792
rfoot 3.20313 -16.7579
rtoes 0.38843
lfemur -78.7491 2.32714 -37.904
ltibia 52.1348
lfoot -14.3745 8.79708
ltoes 11.8588
